<svg width="24" height="25" viewBox="0 0 24 25" fill="none" xmlns="http://www.w3.org/2000/svg">
<path d="M16.064 8.81567C16.064 8.71255 15.9797 8.62817 15.8765 8.62817L14.3297 8.63521L12 11.4125L9.67263 8.63755L8.12341 8.63052C8.02029 8.63052 7.93591 8.71255 7.93591 8.81802C7.93591 8.86255 7.95232 8.90474 7.98044 8.93989L11.0297 12.5727L7.98044 16.2032C7.95212 16.2375 7.93641 16.2805 7.93591 16.3251C7.93591 16.4282 8.02029 16.5126 8.12341 16.5126L9.67263 16.5055L12 13.7282L14.3273 16.5032L15.8742 16.5102C15.9773 16.5102 16.0617 16.4282 16.0617 16.3227C16.0617 16.2782 16.0453 16.236 16.0172 16.2008L12.9726 12.5704L16.0219 8.93755C16.05 8.90474 16.064 8.86021 16.064 8.81567Z" fill="black"/>
<path d="M12 2.02344C6.20156 2.02344 1.5 6.725 1.5 12.5234C1.5 18.3219 6.20156 23.0234 12 23.0234C17.7984 23.0234 22.5 18.3219 22.5 12.5234C22.5 6.725 17.7984 2.02344 12 2.02344ZM12 21.2422C7.18594 21.2422 3.28125 17.3375 3.28125 12.5234C3.28125 7.70938 7.18594 3.80469 12 3.80469C16.8141 3.80469 20.7188 7.70938 20.7188 12.5234C20.7188 17.3375 16.8141 21.2422 12 21.2422Z" fill="black"/>
</svg>
