<svg width="21" height="21" viewBox="0 0 18 18" fill="none" xmlns="http://www.w3.org/2000/svg">
<path d="M6.0679 0.228001C4.70441 0.0756109 3.29536 0.0756109 1.93187 0.228001C1.05469 0.326039 0.345389 1.01679 0.241946 1.90123C0.0788564 3.29565 0.0788565 4.70432 0.241946 6.09874C0.345389 6.98317 1.05469 7.67393 1.93187 7.77197C3.29537 7.92436 4.70441 7.92436 6.0679 7.77197C6.94508 7.67393 7.65438 6.98317 7.75783 6.09874C7.92092 4.70432 7.92092 3.29565 7.75783 1.90123C7.65438 1.01679 6.94508 0.326039 6.0679 0.228001Z" fill="#383838"/>
<path d="M6.0679 10.228C4.70441 10.0756 3.29536 10.0756 1.93187 10.228C1.05469 10.326 0.345389 11.0168 0.241946 11.9012C0.0788564 13.2956 0.0788565 14.7043 0.241946 16.0987C0.345389 16.9832 1.05469 17.6739 1.93187 17.772C3.29537 17.9244 4.70441 17.9244 6.0679 17.772C6.94508 17.6739 7.65438 16.9832 7.75783 16.0987C7.92092 14.7043 7.92092 13.2956 7.75783 11.9012C7.65438 11.0168 6.94508 10.326 6.0679 10.228Z" fill="#383838"/>
<path d="M16.0679 0.228001C14.7044 0.0756109 13.2954 0.0756109 11.9319 0.228001C11.0547 0.326039 10.3454 1.01679 10.242 1.90123C10.0789 3.29565 10.0789 4.70432 10.242 6.09874C10.3454 6.98317 11.0547 7.67393 11.9319 7.77197C13.2954 7.92436 14.7044 7.92436 16.0679 7.77197C16.9451 7.67393 17.6544 6.98317 17.7578 6.09874C17.9209 4.70432 17.9209 3.29565 17.7578 1.90123C17.6544 1.01679 16.9451 0.326039 16.0679 0.228001Z" fill="#383838"/>
<path d="M16.0679 10.228C14.7044 10.0756 13.2954 10.0756 11.9319 10.228C11.0547 10.326 10.3454 11.0168 10.242 11.9012C10.0789 13.2956 10.0789 14.7043 10.242 16.0987C10.3454 16.9832 11.0547 17.6739 11.9319 17.772C13.2954 17.9244 14.7044 17.9244 16.0679 17.772C16.9451 17.6739 17.6544 16.9832 17.7578 16.0987C17.9209 14.7043 17.9209 13.2956 17.7578 11.9012C17.6544 11.0168 16.9451 10.326 16.0679 10.228Z" fill="#383838"/>
</svg>
