<svg width="137" height="19" viewBox="0 0 137 19" fill="none" xmlns="http://www.w3.org/2000/svg">
<path d="M9.532 18.288C7.82 18.288 6.268 17.92 4.876 17.184C3.5 16.432 2.412 15.4 1.612 14.088C0.828 12.76 0.436 11.264 0.436 9.6C0.436 7.936 0.828 6.448 1.612 5.136C2.412 3.808 3.5 2.776 4.876 2.04C6.268 1.288 7.828 0.912 9.556 0.912C11.012 0.912 12.324 1.168 13.492 1.68C14.676 2.192 15.668 2.928 16.468 3.888L13.972 6.192C12.836 4.88 11.428 4.224 9.748 4.224C8.708 4.224 7.78 4.456 6.964 4.92C6.148 5.368 5.508 6 5.044 6.816C4.596 7.632 4.372 8.56 4.372 9.6C4.372 10.64 4.596 11.568 5.044 12.384C5.508 13.2 6.148 13.84 6.964 14.304C7.78 14.752 8.708 14.976 9.748 14.976C11.428 14.976 12.836 14.312 13.972 12.984L16.468 15.288C15.668 16.264 14.676 17.008 13.492 17.52C12.308 18.032 10.988 18.288 9.532 18.288ZM34.3816 18L34.3576 7.92L29.4136 16.224H27.6616L22.7416 8.136V18H19.0936V1.2H22.3096L28.5976 11.64L34.7896 1.2H37.9816L38.0296 18H34.3816ZM50.0554 18.288C48.3434 18.288 46.7914 17.92 45.3994 17.184C44.0234 16.432 42.9354 15.4 42.1354 14.088C41.3514 12.76 40.9594 11.264 40.9594 9.6C40.9594 7.936 41.3514 6.448 42.1354 5.136C42.9354 3.808 44.0234 2.776 45.3994 2.04C46.7914 1.288 48.3514 0.912 50.0794 0.912C51.5354 0.912 52.8474 1.168 54.0154 1.68C55.1994 2.192 56.1914 2.928 56.9914 3.888L54.4954 6.192C53.3594 4.88 51.9514 4.224 50.2714 4.224C49.2314 4.224 48.3034 4.456 47.4874 4.92C46.6714 5.368 46.0314 6 45.5674 6.816C45.1194 7.632 44.8954 8.56 44.8954 9.6C44.8954 10.64 45.1194 11.568 45.5674 12.384C46.0314 13.2 46.6714 13.84 47.4874 14.304C48.3034 14.752 49.2314 14.976 50.2714 14.976C51.9514 14.976 53.3594 14.312 54.4954 12.984L56.9914 15.288C56.1914 16.264 55.1994 17.008 54.0154 17.52C52.8314 18.032 51.5114 18.288 50.0554 18.288ZM66.4139 1.2H70.3019V14.832H78.7259V18H66.4139V1.2ZM88.753 18.288C87.009 18.288 85.433 17.912 84.025 17.16C82.633 16.408 81.537 15.376 80.737 14.064C79.953 12.736 79.561 11.248 79.561 9.6C79.561 7.952 79.953 6.472 80.737 5.16C81.537 3.832 82.633 2.792 84.025 2.04C85.433 1.288 87.009 0.912 88.753 0.912C90.497 0.912 92.065 1.288 93.457 2.04C94.849 2.792 95.945 3.832 96.745 5.16C97.545 6.472 97.945 7.952 97.945 9.6C97.945 11.248 97.545 12.736 96.745 14.064C95.945 15.376 94.849 16.408 93.457 17.16C92.065 17.912 90.497 18.288 88.753 18.288ZM88.753 14.976C89.745 14.976 90.641 14.752 91.441 14.304C92.241 13.84 92.865 13.2 93.313 12.384C93.777 11.568 94.009 10.64 94.009 9.6C94.009 8.56 93.777 7.632 93.313 6.816C92.865 6 92.241 5.368 91.441 4.92C90.641 4.456 89.745 4.224 88.753 4.224C87.761 4.224 86.865 4.456 86.065 4.92C85.265 5.368 84.633 6 84.169 6.816C83.721 7.632 83.497 8.56 83.497 9.6C83.497 10.64 83.721 11.568 84.169 12.384C84.633 13.2 85.265 13.84 86.065 14.304C86.865 14.752 87.761 14.976 88.753 14.976ZM112.219 9.336H115.771V16.152C114.859 16.84 113.803 17.368 112.603 17.736C111.403 18.104 110.195 18.288 108.979 18.288C107.235 18.288 105.667 17.92 104.275 17.184C102.883 16.432 101.787 15.4 100.987 14.088C100.203 12.76 99.811 11.264 99.811 9.6C99.811 7.936 100.203 6.448 100.987 5.136C101.787 3.808 102.891 2.776 104.299 2.04C105.707 1.288 107.291 0.912 109.051 0.912C110.523 0.912 111.859 1.16 113.059 1.656C114.259 2.152 115.267 2.872 116.083 3.816L113.587 6.12C112.387 4.856 110.939 4.224 109.243 4.224C108.171 4.224 107.219 4.448 106.387 4.896C105.555 5.344 104.907 5.976 104.443 6.792C103.979 7.608 103.747 8.544 103.747 9.6C103.747 10.64 103.979 11.568 104.443 12.384C104.907 13.2 105.547 13.84 106.363 14.304C107.195 14.752 108.139 14.976 109.195 14.976C110.315 14.976 111.323 14.736 112.219 14.256V9.336ZM127.519 18.288C125.775 18.288 124.199 17.912 122.791 17.16C121.399 16.408 120.303 15.376 119.503 14.064C118.719 12.736 118.327 11.248 118.327 9.6C118.327 7.952 118.719 6.472 119.503 5.16C120.303 3.832 121.399 2.792 122.791 2.04C124.199 1.288 125.775 0.912 127.519 0.912C129.263 0.912 130.831 1.288 132.223 2.04C133.615 2.792 134.711 3.832 135.511 5.16C136.311 6.472 136.711 7.952 136.711 9.6C136.711 11.248 136.311 12.736 135.511 14.064C134.711 15.376 133.615 16.408 132.223 17.16C130.831 17.912 129.263 18.288 127.519 18.288ZM127.519 14.976C128.511 14.976 129.407 14.752 130.207 14.304C131.007 13.84 131.631 13.2 132.079 12.384C132.543 11.568 132.775 10.64 132.775 9.6C132.775 8.56 132.543 7.632 132.079 6.816C131.631 6 131.007 5.368 130.207 4.92C129.407 4.456 128.511 4.224 127.519 4.224C126.527 4.224 125.631 4.456 124.831 4.92C124.031 5.368 123.399 6 122.935 6.816C122.487 7.632 122.263 8.56 122.263 9.6C122.263 10.64 122.487 11.568 122.935 12.384C123.399 13.2 124.031 13.84 124.831 14.304C125.631 14.752 126.527 14.976 127.519 14.976Z" fill="#0091D5"/>
</svg>
