<svg width="91" height="13" viewBox="0 0 91 13" fill="none" xmlns="http://www.w3.org/2000/svg">
<path d="M6.188 12.192C5.04667 12.192 4.012 11.9467 3.084 11.456C2.16667 10.9547 1.44133 10.2667 0.908 9.392C0.385333 8.50667 0.124 7.50933 0.124 6.4C0.124 5.29067 0.385333 4.29867 0.908 3.424C1.44133 2.53867 2.16667 1.85067 3.084 1.36C4.012 0.858666 5.052 0.608 6.204 0.608C7.17467 0.608 8.04933 0.778666 8.828 1.12C9.61733 1.46133 10.2787 1.952 10.812 2.592L9.148 4.128C8.39067 3.25333 7.452 2.816 6.332 2.816C5.63867 2.816 5.02 2.97067 4.476 3.28C3.932 3.57867 3.50533 4 3.196 4.544C2.89733 5.088 2.748 5.70667 2.748 6.4C2.748 7.09333 2.89733 7.712 3.196 8.256C3.50533 8.8 3.932 9.22667 4.476 9.536C5.02 9.83467 5.63867 9.984 6.332 9.984C7.452 9.984 8.39067 9.54133 9.148 8.656L10.812 10.192C10.2787 10.8427 9.61733 11.3387 8.828 11.68C8.03867 12.0213 7.15867 12.192 6.188 12.192ZM22.7544 12L22.7384 5.28L19.4424 10.816H18.2744L14.9944 5.424V12H12.5624V0.799999H14.7064L18.8984 7.76L23.0264 0.799999H25.1544L25.1864 12H22.7544ZM33.2036 12.192C32.0623 12.192 31.0276 11.9467 30.0996 11.456C29.1823 10.9547 28.457 10.2667 27.9236 9.392C27.401 8.50667 27.1396 7.50933 27.1396 6.4C27.1396 5.29067 27.401 4.29867 27.9236 3.424C28.457 2.53867 29.1823 1.85067 30.0996 1.36C31.0276 0.858666 32.0676 0.608 33.2196 0.608C34.1903 0.608 35.065 0.778666 35.8436 1.12C36.633 1.46133 37.2943 1.952 37.8276 2.592L36.1636 4.128C35.4063 3.25333 34.4676 2.816 33.3476 2.816C32.6543 2.816 32.0356 2.97067 31.4916 3.28C30.9476 3.57867 30.521 4 30.2116 4.544C29.913 5.088 29.7636 5.70667 29.7636 6.4C29.7636 7.09333 29.913 7.712 30.2116 8.256C30.521 8.8 30.9476 9.22667 31.4916 9.536C32.0356 9.83467 32.6543 9.984 33.3476 9.984C34.4676 9.984 35.4063 9.54133 36.1636 8.656L37.8276 10.192C37.2943 10.8427 36.633 11.3387 35.8436 11.68C35.0543 12.0213 34.1743 12.192 33.2036 12.192ZM44.1093 0.799999H46.7013V9.888H52.3173V12H44.1093V0.799999ZM59.002 12.192C57.8393 12.192 56.7887 11.9413 55.85 11.44C54.922 10.9387 54.1913 10.2507 53.658 9.376C53.1353 8.49067 52.874 7.49867 52.874 6.4C52.874 5.30133 53.1353 4.31467 53.658 3.44C54.1913 2.55467 54.922 1.86133 55.85 1.36C56.7887 0.858666 57.8393 0.608 59.002 0.608C60.1647 0.608 61.21 0.858666 62.138 1.36C63.066 1.86133 63.7967 2.55467 64.33 3.44C64.8633 4.31467 65.13 5.30133 65.13 6.4C65.13 7.49867 64.8633 8.49067 64.33 9.376C63.7967 10.2507 63.066 10.9387 62.138 11.44C61.21 11.9413 60.1647 12.192 59.002 12.192ZM59.002 9.984C59.6633 9.984 60.2607 9.83467 60.794 9.536C61.3273 9.22667 61.7433 8.8 62.042 8.256C62.3513 7.712 62.506 7.09333 62.506 6.4C62.506 5.70667 62.3513 5.088 62.042 4.544C61.7433 4 61.3273 3.57867 60.794 3.28C60.2607 2.97067 59.6633 2.816 59.002 2.816C58.3407 2.816 57.7433 2.97067 57.21 3.28C56.6767 3.57867 56.2553 4 55.946 4.544C55.6473 5.088 55.498 5.70667 55.498 6.4C55.498 7.09333 55.6473 7.712 55.946 8.256C56.2553 8.8 56.6767 9.22667 57.21 9.536C57.7433 9.83467 58.3407 9.984 59.002 9.984ZM74.646 6.224H77.014V10.768C76.406 11.2267 75.702 11.5787 74.902 11.824C74.102 12.0693 73.2967 12.192 72.486 12.192C71.3233 12.192 70.278 11.9467 69.35 11.456C68.422 10.9547 67.6913 10.2667 67.158 9.392C66.6353 8.50667 66.374 7.50933 66.374 6.4C66.374 5.29067 66.6353 4.29867 67.158 3.424C67.6913 2.53867 68.4273 1.85067 69.366 1.36C70.3047 0.858666 71.3607 0.608 72.534 0.608C73.5153 0.608 74.406 0.773333 75.206 1.104C76.006 1.43467 76.678 1.91467 77.222 2.544L75.558 4.08C74.758 3.23733 73.7927 2.816 72.662 2.816C71.9473 2.816 71.3127 2.96533 70.758 3.264C70.2033 3.56267 69.7713 3.984 69.462 4.528C69.1527 5.072 68.998 5.696 68.998 6.4C68.998 7.09333 69.1527 7.712 69.462 8.256C69.7713 8.8 70.198 9.22667 70.742 9.536C71.2967 9.83467 71.926 9.984 72.63 9.984C73.3767 9.984 74.0487 9.824 74.646 9.504V6.224ZM84.8458 12.192C83.6831 12.192 82.6324 11.9413 81.6938 11.44C80.7658 10.9387 80.0351 10.2507 79.5018 9.376C78.9791 8.49067 78.7178 7.49867 78.7178 6.4C78.7178 5.30133 78.9791 4.31467 79.5018 3.44C80.0351 2.55467 80.7658 1.86133 81.6938 1.36C82.6324 0.858666 83.6831 0.608 84.8458 0.608C86.0084 0.608 87.0538 0.858666 87.9818 1.36C88.9098 1.86133 89.6404 2.55467 90.1738 3.44C90.7071 4.31467 90.9738 5.30133 90.9738 6.4C90.9738 7.49867 90.7071 8.49067 90.1738 9.376C89.6404 10.2507 88.9098 10.9387 87.9818 11.44C87.0538 11.9413 86.0084 12.192 84.8458 12.192ZM84.8458 9.984C85.5071 9.984 86.1044 9.83467 86.6378 9.536C87.1711 9.22667 87.5871 8.8 87.8858 8.256C88.1951 7.712 88.3498 7.09333 88.3498 6.4C88.3498 5.70667 88.1951 5.088 87.8858 4.544C87.5871 4 87.1711 3.57867 86.6378 3.28C86.1044 2.97067 85.5071 2.816 84.8458 2.816C84.1844 2.816 83.5871 2.97067 83.0538 3.28C82.5204 3.57867 82.0991 4 81.7898 4.544C81.4911 5.088 81.3418 5.70667 81.3418 6.4C81.3418 7.09333 81.4911 7.712 81.7898 8.256C82.0991 8.8 82.5204 9.22667 83.0538 9.536C83.5871 9.83467 84.1844 9.984 84.8458 9.984Z" fill="#0091D5"/>
</svg>
