<svg width="17" height="20" viewBox="0 0 17 20" fill="none" xmlns="http://www.w3.org/2000/svg">
<path d="M15.625 19.5H1.375C1.05339 19.5 0.775066 19.3856 0.54004 19.1567C0.305013 18.9279 0.1875 18.6465 0.1875 18.3125V1.70605C0.1875 1.37207 0.305013 1.09066 0.54004 0.861816C0.775066 0.632975 1.05339 0.518555 1.375 0.518555H9.68752V7.0498C9.68752 7.21061 9.74628 7.34977 9.86379 7.46729C9.9813 7.5848 10.1205 7.64355 10.2813 7.64355H16.8125V18.3125C16.8125 18.6465 16.6981 18.9279 16.4693 19.1567C16.2404 19.3856 15.959 19.5 15.625 19.5ZM13.8438 15.9375H13.25V11.7812C13.25 11.6204 13.1913 11.4813 13.0738 11.3638C12.9562 11.2463 12.8171 11.1875 12.6563 11.1875H11.4688C11.308 11.1875 11.1688 11.2463 11.0513 11.3638C10.9338 11.4813 10.875 11.6204 10.875 11.7812V15.9375H9.68752V9.40625C9.68752 9.24544 9.62876 9.10628 9.51125 8.98877C9.39374 8.87126 9.25458 8.8125 9.09377 8.8125H7.90627C7.74546 8.8125 7.6063 8.87126 7.48879 8.98877C7.37127 9.10628 7.31252 9.24544 7.31252 9.40625V15.9375H6.12501V12.9688C6.12501 12.8079 6.06626 12.6688 5.94874 12.5513C5.83123 12.4338 5.69207 12.375 5.53126 12.375H4.34376C4.18295 12.375 4.04379 12.4338 3.92628 12.5513C3.80876 12.6688 3.75001 12.8079 3.75001 12.9688V15.9375H3.15626C2.99545 15.9375 2.85629 15.9963 2.73878 16.1138C2.62126 16.2313 2.56251 16.3704 2.56251 16.5312C2.56251 16.6921 2.62126 16.8312 2.73878 16.9487C2.85629 17.0662 2.99545 17.125 3.15626 17.125H13.8438C14.017 17.125 14.1592 17.0662 14.2705 16.9487C14.3819 16.8312 14.4375 16.6921 14.4375 16.5312C14.4375 16.3704 14.3788 16.2313 14.2613 16.1138C14.1437 15.9963 14.0046 15.9375 13.8438 15.9375ZM10.875 0.5C11.1966 0.5 11.4688 0.611328 11.6914 0.833984L16.46 5.60254C16.695 5.83756 16.8125 6.12207 16.8125 6.45605H10.875V0.5Z" fill="#383838"/>
</svg>
