<svg width="21" height="21" viewBox="0 0 21 21" fill="none" xmlns="http://www.w3.org/2000/svg">
<path d="M18.5505 5.38048V8.87779C17.1788 8.16644 15.6203 7.91459 14.0989 8.15839C12.5774 8.40219 11.1711 9.1291 10.082 10.2348C8.9928 11.3405 8.27674 12.768 8.03657 14.3126C7.79641 15.8571 8.04451 17.4392 8.74523 18.8317H3.31259C2.43403 18.8317 1.59147 18.4774 0.970235 17.8467C0.349004 17.2161 0 16.3607 0 15.4689V5.38048H18.5505ZM15.2379 0C16.1165 0 16.959 0.354294 17.5803 0.984941C18.2015 1.61559 18.5505 2.47093 18.5505 3.3628V4.03536H0V3.3628C0 2.47093 0.349004 1.61559 0.970235 0.984941C1.59147 0.354294 2.43403 0 3.31259 0H15.2379ZM12.0128 11.3555C12.1082 11.7007 12.1347 12.0618 12.0907 12.4175C12.0467 12.7733 11.9331 13.1165 11.7566 13.427C11.58 13.7376 11.3441 14.0091 11.0627 14.2258C10.7814 14.4425 10.4601 14.5999 10.118 14.6887L9.5058 14.8474C9.46159 15.3021 9.46603 15.7603 9.51905 16.2141L9.98281 16.3257C10.3341 16.41 10.6647 16.5664 10.9544 16.785C11.2441 17.0037 11.4867 17.2802 11.6673 17.5975C11.848 17.9148 11.9629 18.2662 12.005 18.6301C12.047 18.9941 12.0154 19.3629 11.9121 19.7141L11.7438 20.2817C12.0856 20.5561 12.4553 20.7902 12.8502 20.9785L13.2808 20.5158C13.5287 20.2493 13.8277 20.037 14.1593 19.892C14.4909 19.7471 14.8483 19.6724 15.2093 19.6727C15.5704 19.6729 15.9276 19.7481 16.259 19.8935C16.5905 20.0389 16.8891 20.2516 17.1367 20.5184L17.5832 21C17.9701 20.8184 18.3358 20.5938 18.6724 20.3301L18.4657 19.5822C18.3701 19.237 18.3434 18.8757 18.3873 18.5198C18.4312 18.164 18.5448 17.8206 18.7213 17.5099C18.8979 17.1992 19.1338 16.9275 19.4153 16.7107C19.6968 16.494 20.0182 16.3365 20.3605 16.2477L20.97 16.0903C21.014 15.6352 21.0096 15.1765 20.9568 14.7223L20.4956 14.612C20.1442 14.5277 19.8134 14.3714 19.5236 14.1526C19.2339 13.9338 18.9912 13.6572 18.8105 13.3398C18.6299 13.0223 18.515 12.6708 18.473 12.3066C18.431 11.9425 18.4628 11.5735 18.5664 11.2223L18.7333 10.656C18.3919 10.3813 18.0207 10.1471 17.6269 9.95792L17.1963 10.4206C16.9485 10.6872 16.6496 10.8996 16.318 11.0447C15.9865 11.1898 15.6292 11.2645 15.2681 11.2644C14.907 11.2643 14.5498 11.1893 14.2183 11.0439C13.8868 10.8986 13.5881 10.686 13.3405 10.4193L12.8939 9.93774C12.5075 10.1187 12.1422 10.343 11.8047 10.6063L12.0128 11.3555ZM15.2379 16.814C14.8865 16.814 14.5495 16.6723 14.301 16.42C14.0525 16.1678 13.9129 15.8256 13.9129 15.4689C13.9129 15.1121 14.0525 14.77 14.301 14.5177C14.5495 14.2655 14.8865 14.1238 15.2379 14.1238C15.5893 14.1238 15.9264 14.2655 16.1748 14.5177C16.4233 14.77 16.5629 15.1121 16.5629 15.4689C16.5629 15.8256 16.4233 16.1678 16.1748 16.42C15.9264 16.6723 15.5893 16.814 15.2379 16.814Z" fill="#383838"/>
</svg>
