<svg width="22" height="22" viewBox="0 0 22 22" fill="none" xmlns="http://www.w3.org/2000/svg">
<path d="M14.5901 1.53001C14.1682 1.10835 13.5961 0.87149 12.9996 0.87149C12.4031 0.87149 11.831 1.10835 11.4091 1.53001L1.53011 11.41C1.32118 11.6189 1.15544 11.867 1.04237 12.14C0.929293 12.413 0.871094 12.7055 0.871094 13.001C0.871094 13.2965 0.929293 13.5891 1.04237 13.8621C1.15544 14.135 1.32118 14.3831 1.53011 14.592L2.70211 15.763C3.21211 16.274 3.92911 16.183 4.36211 15.925C4.60097 15.7832 4.88026 15.725 5.15588 15.7595C5.43151 15.7941 5.68777 15.9195 5.88419 16.1159C6.08062 16.3124 6.20601 16.5686 6.24059 16.8442C6.27516 17.1199 6.21694 17.3992 6.07511 17.638C5.81811 18.071 5.72611 18.788 6.23711 19.298L7.41011 20.47C7.61905 20.6789 7.86708 20.8447 8.14007 20.9578C8.41305 21.0708 8.70564 21.129 9.00111 21.129C9.29659 21.129 9.58917 21.0708 9.86216 20.9578C10.1351 20.8447 10.3832 20.6789 10.5921 20.47L20.4701 10.592C20.679 10.3831 20.8448 10.135 20.9579 9.86205C21.0709 9.58907 21.1291 9.29649 21.1291 9.00101C21.1291 8.70553 21.0709 8.41295 20.9579 8.13997C20.8448 7.86698 20.679 7.61894 20.4701 7.41001L19.2991 6.23801C18.7891 5.72801 18.0711 5.81801 17.6381 6.07601C17.3993 6.21784 17.12 6.27606 16.8443 6.24148C16.5687 6.20691 16.3125 6.08151 16.116 5.88509C15.9196 5.68866 15.7942 5.43241 15.7596 5.15678C15.7251 4.88115 15.7833 4.60186 15.9251 4.36301C16.1831 3.93001 16.2741 3.21301 15.7631 2.70301L14.5911 1.53001H14.5901Z" fill="#383838"/>
</svg>
