<svg width="652" height="738" viewBox="0 0 652 738" fill="none" xmlns="http://www.w3.org/2000/svg">
<path d="M651.26 0V93C651.26 93 608.611 80.9845 586.089 59.5969C563.566 38.2093 555.42 0 555.42 0H651.26Z" fill="#2C4F77"/>
<path d="M607.244 36.2061V88.0305C607.244 88.0305 583.551 81.3349 571.038 69.4166C558.526 57.4983 554 36.2061 554 36.2061H607.244Z" fill="#0091D5"/>
<path d="M0 737.912V609C0 609 59.1176 625.655 90.337 655.302C121.556 684.948 132.849 737.912 132.849 737.912H0Z" fill="#2C4F77"/>
<path d="M61.012 687.725V615.888C61.012 615.888 93.8551 625.17 111.199 641.69C128.543 658.211 134.817 687.725 134.817 687.725H61.012Z" fill="#0091D5"/>
<path d="M503.757 258.348H80.2435C80.0657 258.344 79.8966 258.271 79.7722 258.144C79.6479 258.018 79.5782 257.848 79.5782 257.671C79.5782 257.494 79.6479 257.325 79.7722 257.198C79.8966 257.072 80.0657 256.999 80.2435 256.995H503.757C503.935 256.999 504.104 257.072 504.228 257.198C504.353 257.325 504.422 257.494 504.422 257.671C504.422 257.848 504.353 258.018 504.228 258.144C504.104 258.271 503.935 258.344 503.757 258.348Z" fill="#CACACA"/>
<path d="M95.2163 248.879C99.2577 248.879 102.534 245.548 102.534 241.44C102.534 237.331 99.2577 234 95.2163 234C91.175 234 87.8988 237.331 87.8988 241.44C87.8988 245.548 91.175 248.879 95.2163 248.879Z" fill="#3F3D56"/>
<path d="M120.495 248.879C124.536 248.879 127.813 245.548 127.813 241.44C127.813 237.331 124.536 234 120.495 234C116.454 234 113.177 237.331 113.177 241.44C113.177 245.548 116.454 248.879 120.495 248.879Z" fill="#3F3D56"/>
<path d="M145.774 248.879C149.815 248.879 153.091 245.548 153.091 241.44C153.091 237.331 149.815 234 145.774 234C141.732 234 138.456 237.331 138.456 241.44C138.456 245.548 141.732 248.879 145.774 248.879Z" fill="#3F3D56"/>
<path d="M488.609 235.844H470.652C470.296 235.851 469.957 235.997 469.708 236.249C469.459 236.502 469.319 236.842 469.319 237.196C469.319 237.55 469.459 237.89 469.708 238.143C469.957 238.396 470.296 238.541 470.652 238.548H488.609C488.965 238.541 489.304 238.396 489.553 238.143C489.802 237.89 489.942 237.55 489.942 237.196C489.942 236.842 489.802 236.502 489.553 236.249C489.304 235.997 488.965 235.851 488.609 235.844Z" fill="#3F3D56"/>
<path d="M488.609 240.92H470.652C470.296 240.927 469.957 241.072 469.708 241.325C469.459 241.578 469.319 241.918 469.319 242.272C469.319 242.626 469.459 242.966 469.708 243.219C469.957 243.471 470.296 243.617 470.652 243.624H488.609C488.965 243.617 489.304 243.471 489.553 243.219C489.802 242.966 489.942 242.626 489.942 242.272C489.942 241.918 489.802 241.578 489.553 241.325C489.304 241.072 488.965 240.927 488.609 240.92Z" fill="#3F3D56"/>
<path d="M488.609 245.989H470.652C470.296 245.996 469.957 246.141 469.708 246.394C469.459 246.647 469.319 246.987 469.319 247.341C469.319 247.695 469.459 248.035 469.708 248.288C469.957 248.54 470.296 248.686 470.652 248.693H488.609C488.965 248.686 489.304 248.54 489.553 248.288C489.802 248.035 489.942 247.695 489.942 247.341C489.942 246.987 489.802 246.647 489.553 246.394C489.304 246.141 488.965 245.996 488.609 245.989Z" fill="#3F3D56"/>
<path d="M409.849 311.362H119.161C117.728 311.362 116.355 311.927 115.341 312.934C114.328 313.94 113.758 315.306 113.756 316.73V453.194C113.757 454.619 114.327 455.985 115.341 456.993C116.354 458.001 117.728 458.568 119.161 458.569H409.849C411.281 458.566 412.654 457.999 413.666 456.991C414.677 455.984 415.246 454.618 415.248 453.194V316.73C415.246 315.307 414.677 313.942 413.665 312.936C412.653 311.929 411.28 311.363 409.849 311.362Z" fill="#3F3D56"/>
<path d="M333.066 377.105C331.635 377.107 330.263 377.673 329.251 378.68C328.239 379.686 327.669 381.051 327.668 382.474V421.021C327.669 422.445 328.238 423.811 329.25 424.819C330.262 425.826 331.634 426.394 333.066 426.397H415.247V377.105H333.066Z" fill="#0091D5"/>
<path d="M553.431 426.394H333.069C331.637 426.392 330.263 425.826 329.25 424.819C328.237 423.811 327.668 422.445 327.667 421.021V382.475C327.668 381.051 328.238 379.685 329.251 378.678C330.264 377.671 331.637 377.104 333.069 377.103H553.431C554.864 377.104 556.237 377.671 557.25 378.678C558.263 379.685 558.832 381.051 558.834 382.475V421.021C558.832 422.445 558.263 423.811 557.25 424.818C556.237 425.826 554.864 426.392 553.431 426.394Z" fill="#0091D5"/>
<path d="M362.87 412.931C367.712 412.931 371.637 409.028 371.637 404.212C371.637 399.397 367.712 395.494 362.87 395.494C358.028 395.494 354.103 399.397 354.103 404.212C354.103 409.028 358.028 412.931 362.87 412.931Z" fill="white"/>
<path d="M546.604 401.679H388.193C387.501 401.679 386.837 401.406 386.347 400.919C385.857 400.432 385.582 399.771 385.582 399.083C385.582 398.394 385.857 397.734 386.347 397.247C386.837 396.76 387.501 396.487 388.193 396.487H546.604C547.296 396.487 547.96 396.76 548.45 397.247C548.939 397.734 549.214 398.394 549.214 399.083C549.214 399.771 548.939 400.432 548.45 400.919C547.96 401.406 547.296 401.679 546.604 401.679Z" fill="white"/>
<path d="M486.438 411.938H388.193C387.5 411.938 386.836 411.665 386.347 411.178C385.857 410.691 385.582 410.031 385.582 409.342C385.582 408.653 385.857 407.993 386.347 407.506C386.836 407.019 387.5 406.746 388.193 406.746H486.438C487.13 406.746 487.794 407.019 488.284 407.506C488.773 407.993 489.048 408.653 489.048 409.342C489.048 410.031 488.773 410.691 488.284 411.178C487.794 411.665 487.13 411.938 486.438 411.938Z" fill="white"/>
<path d="M552.489 392.763C548.828 392.763 545.249 391.683 542.204 389.66C539.16 387.638 536.788 384.762 535.387 381.398C533.986 378.034 533.619 374.333 534.333 370.762C535.047 367.191 536.811 363.91 539.399 361.336C541.988 358.761 545.287 357.008 548.877 356.297C552.468 355.587 556.19 355.952 559.573 357.345C562.955 358.738 565.846 361.098 567.88 364.126C569.914 367.153 571 370.712 571 374.353C571 379.236 569.05 383.918 565.578 387.371C562.107 390.823 557.398 392.763 552.489 392.763Z" fill="#0091D5"/>
<path d="M559.793 372.537H554.315V367.089C554.315 366.608 554.122 366.146 553.78 365.805C553.438 365.465 552.973 365.273 552.489 365.273C552.005 365.273 551.54 365.465 551.198 365.805C550.855 366.146 550.663 366.608 550.663 367.089V372.537H545.185C544.945 372.537 544.707 372.584 544.485 372.675C544.263 372.766 544.061 372.899 543.891 373.068C543.721 373.237 543.587 373.437 543.495 373.658C543.403 373.878 543.355 374.115 543.355 374.353C543.355 374.592 543.403 374.829 543.495 375.049C543.587 375.27 543.721 375.47 543.891 375.639C544.061 375.807 544.263 375.941 544.485 376.032C544.707 376.123 544.945 376.17 545.185 376.169H550.663V381.617C550.663 382.099 550.855 382.561 551.198 382.902C551.54 383.242 552.005 383.433 552.489 383.433C552.973 383.433 553.438 383.242 553.78 382.902C554.122 382.561 554.315 382.099 554.315 381.617V376.169H559.793C560.277 376.169 560.742 375.978 561.084 375.637C561.426 375.297 561.619 374.835 561.619 374.353C561.619 373.872 561.426 373.41 561.084 373.069C560.742 372.729 560.277 372.537 559.793 372.537Z" fill="white"/>
<path d="M269.98 426.643H199.647C198.214 426.645 196.841 427.212 195.827 428.219C194.814 429.227 194.244 430.593 194.242 432.019V458.569H275.379V432.019C275.378 430.594 274.809 429.229 273.797 428.221C272.785 427.214 271.412 426.646 269.98 426.643Z" fill="#0091D5"/>
<path d="M269.978 501.246H199.645C198.213 501.245 196.839 500.678 195.826 499.671C194.814 498.663 194.244 497.298 194.242 495.873V432.016C194.244 430.591 194.814 429.226 195.827 428.219C196.839 427.211 198.213 426.645 199.645 426.643H269.978C271.41 426.645 272.783 427.211 273.796 428.219C274.809 429.226 275.379 430.591 275.381 432.016V495.873C275.379 497.298 274.809 498.663 273.796 499.671C272.784 500.678 271.41 501.245 269.978 501.246Z" fill="#0091D5"/>
<path d="M220.367 456.911C225.209 456.911 229.134 453.008 229.134 448.192C229.134 443.377 225.209 439.474 220.367 439.474C215.525 439.474 211.6 443.377 211.6 448.192C211.6 453.008 215.525 456.911 220.367 456.911Z" fill="white"/>
<path d="M255.411 470.163H214.211C213.518 470.163 212.854 469.89 212.365 469.403C211.875 468.916 211.6 468.255 211.6 467.567C211.6 466.878 211.875 466.218 212.365 465.731C212.854 465.244 213.518 464.971 214.211 464.971H255.411C256.104 464.971 256.768 465.244 257.257 465.731C257.747 466.218 258.022 466.878 258.022 467.567C258.022 468.255 257.747 468.916 257.257 469.403C256.768 469.89 256.104 470.163 255.411 470.163Z" fill="white"/>
<path d="M234.092 480.422H214.211C213.518 480.422 212.854 480.149 212.365 479.662C211.875 479.175 211.6 478.515 211.6 477.826C211.6 477.137 211.875 476.477 212.365 475.99C212.854 475.503 213.518 475.23 214.211 475.23H234.092C234.784 475.23 235.449 475.503 235.938 475.99C236.428 476.477 236.703 477.137 236.703 477.826C236.703 478.515 236.428 479.175 235.938 479.662C235.449 480.149 234.784 480.422 234.092 480.422Z" fill="white"/>
<path d="M198.179 519.988C194.518 519.988 190.939 518.908 187.894 516.885C184.85 514.862 182.478 511.987 181.077 508.623C179.675 505.259 179.309 501.558 180.023 497.986C180.737 494.415 182.5 491.135 185.089 488.56C187.678 485.986 190.977 484.232 194.567 483.522C198.158 482.812 201.88 483.176 205.263 484.57C208.645 485.963 211.536 488.323 213.57 491.35C215.604 494.378 216.69 497.937 216.69 501.578C216.69 506.461 214.74 511.143 211.268 514.596C207.797 518.048 203.088 519.988 198.179 519.988Z" fill="#0091D5"/>
<path d="M205.483 499.762H200.005V494.314C200.005 493.832 199.812 493.371 199.47 493.03C199.127 492.689 198.663 492.498 198.179 492.498C197.694 492.498 197.23 492.689 196.887 493.03C196.545 493.371 196.353 493.832 196.353 494.314V499.762H190.875C190.634 499.762 190.397 499.808 190.175 499.899C189.953 499.99 189.751 500.124 189.581 500.293C189.411 500.461 189.276 500.662 189.184 500.882C189.092 501.103 189.045 501.339 189.045 501.578C189.045 501.817 189.092 502.053 189.184 502.274C189.276 502.494 189.411 502.695 189.581 502.863C189.751 503.032 189.953 503.166 190.175 503.257C190.397 503.348 190.634 503.395 190.875 503.394H196.353V508.842C196.353 509.324 196.545 509.786 196.887 510.126C197.23 510.467 197.694 510.658 198.179 510.658C198.663 510.658 199.127 510.467 199.47 510.126C199.812 509.786 200.005 509.324 200.005 508.842V503.394H205.483C205.967 503.394 206.431 503.203 206.774 502.862C207.116 502.522 207.309 502.06 207.309 501.578C207.309 501.096 207.116 500.635 206.774 500.294C206.431 499.953 205.967 499.762 205.483 499.762Z" fill="white"/>
<path d="M189.61 386.048H119.277C117.845 386.046 116.471 385.48 115.458 384.472C114.446 383.465 113.876 382.099 113.874 380.675V316.818C113.876 315.393 114.446 314.027 115.458 313.02C116.471 312.013 117.845 311.446 119.277 311.445H189.61C191.042 311.446 192.415 312.013 193.428 313.02C194.441 314.027 195.011 315.393 195.013 316.818V380.675C195.011 382.099 194.441 383.465 193.428 384.472C192.416 385.48 191.042 386.046 189.61 386.048Z" fill="#0091D5"/>
<path d="M139.999 347.042C144.841 347.042 148.766 343.138 148.766 338.323C148.766 333.508 144.841 329.604 139.999 329.604C135.158 329.604 131.232 333.508 131.232 338.323C131.232 343.138 135.158 347.042 139.999 347.042Z" fill="#0091D5"/>
<path d="M175.044 357.629H133.843C133.151 357.629 132.487 357.356 131.997 356.869C131.508 356.382 131.233 355.722 131.233 355.033C131.233 354.344 131.508 353.684 131.997 353.197C132.487 352.71 133.151 352.437 133.843 352.437H175.044C175.736 352.437 176.4 352.71 176.89 353.197C177.379 353.684 177.654 354.344 177.654 355.033C177.654 355.722 177.379 356.382 176.89 356.869C176.4 357.356 175.736 357.629 175.044 357.629Z" fill="#0091D5"/>
<path d="M153.724 367.889H133.843C133.151 367.889 132.487 367.615 131.997 367.128C131.507 366.641 131.232 365.981 131.232 365.292C131.232 364.604 131.507 363.943 131.997 363.456C132.487 362.969 133.151 362.696 133.843 362.696H153.724C154.417 362.696 155.081 362.969 155.571 363.456C156.06 363.943 156.335 364.604 156.335 365.292C156.335 365.981 156.06 366.641 155.571 367.128C155.081 367.615 154.417 367.889 153.724 367.889Z" fill="#0091D5"/>
<path d="M189.61 386.048H119.277C117.845 386.046 116.471 385.48 115.458 384.472C114.446 383.465 113.876 382.099 113.874 380.675V316.818C113.876 315.393 114.446 314.027 115.458 313.02C116.471 312.013 117.845 311.446 119.277 311.445H189.61C191.042 311.446 192.415 312.013 193.428 313.02C194.441 314.027 195.011 315.393 195.013 316.818V380.675C195.011 382.099 194.441 383.465 193.428 384.472C192.416 385.48 191.042 386.046 189.61 386.048Z" fill="#0091D5"/>
<path d="M139.999 347.042C144.841 347.042 148.766 343.138 148.766 338.323C148.766 333.508 144.841 329.604 139.999 329.604C135.158 329.604 131.232 333.508 131.232 338.323C131.232 343.138 135.158 347.042 139.999 347.042Z" fill="white"/>
<path d="M175.044 357.629H133.843C133.151 357.629 132.487 357.356 131.997 356.869C131.508 356.382 131.233 355.722 131.233 355.033C131.233 354.344 131.508 353.684 131.997 353.197C132.487 352.71 133.151 352.437 133.843 352.437H175.044C175.736 352.437 176.4 352.71 176.89 353.197C177.379 353.684 177.654 354.344 177.654 355.033C177.654 355.722 177.379 356.382 176.89 356.869C176.4 357.356 175.736 357.629 175.044 357.629Z" fill="white"/>
<path d="M153.724 367.889H133.843C133.151 367.889 132.487 367.615 131.997 367.128C131.507 366.641 131.232 365.981 131.232 365.292C131.232 364.604 131.507 363.943 131.997 363.456C132.487 362.969 133.151 362.696 133.843 362.696H153.724C154.417 362.696 155.081 362.969 155.571 363.456C156.06 363.943 156.335 364.604 156.335 365.292C156.335 365.981 156.06 366.641 155.571 367.128C155.081 367.615 154.417 367.889 153.724 367.889Z" fill="white"/>
<path d="M120.728 325.223C128.496 325.223 134.793 318.96 134.793 311.235C134.793 303.51 128.496 297.247 120.728 297.247C112.96 297.247 106.663 303.51 106.663 311.235C106.663 318.96 112.96 325.223 120.728 325.223Z" fill="#FF6584"/>
</svg>
